<svg width="30" height="33" viewBox="0 0 30 33" fill="none" xmlns="http://www.w3.org/2000/svg">
<g id="Group 8">
<path id="Polygon 3" d="M2.50962 8.7094L15 0.939197L27.4904 8.7094V24.3163L15 32.0865L2.50962 24.3163V8.7094Z" stroke="#040404"/>
<path id="Arrow 3" d="M14.646 22.2537C14.8412 22.449 15.1578 22.449 15.3531 22.2537L18.535 19.0718C18.7303 18.8765 18.7303 18.5599 18.535 18.3646C18.3398 18.1694 18.0232 18.1694 17.8279 18.3646L14.9995 21.1931L12.1711 18.3646C11.9758 18.1694 11.6592 18.1694 11.464 18.3646C11.2687 18.5599 11.2687 18.8765 11.464 19.0718L14.646 22.2537ZM14.4995 11.1252V21.9002H15.4995V11.1252H14.4995Z" fill="#040404"/>
</g>
</svg>
